<mxfile host="app.diagrams.net" modified="2024-04-14T12:32:49.567Z" agent="Mozilla/5.0 (Windows NT 10.0; Win64; x64; rv:124.0) Gecko/20100101 Firefox/124.0" etag="1GGx74OpqzNU2sTHDmEd" version="24.2.5" type="device">
  <diagram name="Page-1" id="UoFx0G1EZgBmT3SE1KH6">
    <mxGraphModel dx="3447" dy="1393" grid="1" gridSize="10" guides="1" tooltips="1" connect="1" arrows="1" fold="1" page="1" pageScale="1" pageWidth="850" pageHeight="1100" math="0" shadow="0">
      <root>
        <mxCell id="0" />
        <mxCell id="1" parent="0" />
        <mxCell id="6iRS3MILoFcjqRqk2sZD-5" value="" style="edgeStyle=orthogonalEdgeStyle;rounded=0;orthogonalLoop=1;jettySize=auto;html=1;" parent="1" source="6iRS3MILoFcjqRqk2sZD-1" target="6iRS3MILoFcjqRqk2sZD-4" edge="1">
          <mxGeometry relative="1" as="geometry" />
        </mxCell>
        <mxCell id="6iRS3MILoFcjqRqk2sZD-6" value="&lt;div&gt;bgn / c0=1&lt;/div&gt;" style="edgeLabel;html=1;align=center;verticalAlign=middle;resizable=0;points=[];" parent="6iRS3MILoFcjqRqk2sZD-5" vertex="1" connectable="0">
          <mxGeometry x="0.32" y="-1" relative="1" as="geometry">
            <mxPoint x="1" y="-10" as="offset" />
          </mxGeometry>
        </mxCell>
        <mxCell id="6iRS3MILoFcjqRqk2sZD-1" value="START" style="ellipse;whiteSpace=wrap;html=1;aspect=fixed;" parent="1" vertex="1">
          <mxGeometry x="395" y="130" width="80" height="80" as="geometry" />
        </mxCell>
        <mxCell id="6iRS3MILoFcjqRqk2sZD-2" value="" style="curved=1;endArrow=classic;html=1;rounded=0;exitX=1;exitY=1;exitDx=0;exitDy=0;entryX=1;entryY=0;entryDx=0;entryDy=0;" parent="1" source="6iRS3MILoFcjqRqk2sZD-1" target="6iRS3MILoFcjqRqk2sZD-1" edge="1">
          <mxGeometry width="50" height="50" relative="1" as="geometry">
            <mxPoint x="395" y="180" as="sourcePoint" />
            <mxPoint x="445" y="130" as="targetPoint" />
            <Array as="points">
              <mxPoint x="515" y="220" />
              <mxPoint x="520" y="120" />
            </Array>
          </mxGeometry>
        </mxCell>
        <mxCell id="6iRS3MILoFcjqRqk2sZD-3" value="!bgn / c0=0" style="edgeLabel;html=1;align=center;verticalAlign=middle;resizable=0;points=[];" parent="6iRS3MILoFcjqRqk2sZD-2" vertex="1" connectable="0">
          <mxGeometry x="0.0848" y="3" relative="1" as="geometry">
            <mxPoint as="offset" />
          </mxGeometry>
        </mxCell>
        <mxCell id="6iRS3MILoFcjqRqk2sZD-4" value="S0" style="ellipse;whiteSpace=wrap;html=1;aspect=fixed;" parent="1" vertex="1">
          <mxGeometry x="395" y="250" width="80" height="80" as="geometry" />
        </mxCell>
        <mxCell id="6iRS3MILoFcjqRqk2sZD-11" value="" style="edgeStyle=orthogonalEdgeStyle;rounded=0;orthogonalLoop=1;jettySize=auto;html=1;exitX=0.5;exitY=1;exitDx=0;exitDy=0;" parent="1" source="6iRS3MILoFcjqRqk2sZD-4" target="6iRS3MILoFcjqRqk2sZD-10" edge="1">
          <mxGeometry relative="1" as="geometry">
            <mxPoint x="435" y="330" as="sourcePoint" />
          </mxGeometry>
        </mxCell>
        <mxCell id="6iRS3MILoFcjqRqk2sZD-12" value="*" style="edgeLabel;html=1;align=center;verticalAlign=middle;resizable=0;points=[];" parent="6iRS3MILoFcjqRqk2sZD-11" vertex="1" connectable="0">
          <mxGeometry x="-0.2" relative="1" as="geometry">
            <mxPoint x="3" y="-8" as="offset" />
          </mxGeometry>
        </mxCell>
        <mxCell id="6iRS3MILoFcjqRqk2sZD-17" value="" style="edgeStyle=orthogonalEdgeStyle;rounded=0;orthogonalLoop=1;jettySize=auto;html=1;" parent="1" source="6iRS3MILoFcjqRqk2sZD-10" target="6iRS3MILoFcjqRqk2sZD-16" edge="1">
          <mxGeometry relative="1" as="geometry" />
        </mxCell>
        <mxCell id="6iRS3MILoFcjqRqk2sZD-18" value="m[n]" style="edgeLabel;html=1;align=center;verticalAlign=middle;resizable=0;points=[];" parent="6iRS3MILoFcjqRqk2sZD-17" vertex="1" connectable="0">
          <mxGeometry x="-0.72" y="-3" relative="1" as="geometry">
            <mxPoint x="-10" y="4" as="offset" />
          </mxGeometry>
        </mxCell>
        <mxCell id="6iRS3MILoFcjqRqk2sZD-10" value="SM" style="ellipse;whiteSpace=wrap;html=1;aspect=fixed;" parent="1" vertex="1">
          <mxGeometry x="395" y="360" width="80" height="80" as="geometry" />
        </mxCell>
        <mxCell id="6iRS3MILoFcjqRqk2sZD-13" value="&lt;div&gt;S2&lt;/div&gt;&lt;div&gt;____________&lt;/div&gt;&lt;div&gt;&lt;br&gt;&lt;/div&gt;&lt;div&gt;c2=1&lt;br&gt;&lt;/div&gt;" style="ellipse;whiteSpace=wrap;html=1;aspect=fixed;" parent="1" vertex="1">
          <mxGeometry x="525" y="360" width="80" height="80" as="geometry" />
        </mxCell>
        <mxCell id="6iRS3MILoFcjqRqk2sZD-14" value="" style="curved=1;endArrow=classic;html=1;rounded=0;exitX=1;exitY=1;exitDx=0;exitDy=0;entryX=0;entryY=1;entryDx=0;entryDy=0;" parent="1" source="6iRS3MILoFcjqRqk2sZD-10" target="6iRS3MILoFcjqRqk2sZD-13" edge="1">
          <mxGeometry width="50" height="50" relative="1" as="geometry">
            <mxPoint x="495" y="470" as="sourcePoint" />
            <mxPoint x="545" y="420" as="targetPoint" />
            <Array as="points">
              <mxPoint x="495" y="450" />
            </Array>
          </mxGeometry>
        </mxCell>
        <mxCell id="6iRS3MILoFcjqRqk2sZD-15" value="!m[n]" style="edgeLabel;html=1;align=center;verticalAlign=middle;resizable=0;points=[];" parent="6iRS3MILoFcjqRqk2sZD-14" vertex="1" connectable="0">
          <mxGeometry x="0.0382" y="7" relative="1" as="geometry">
            <mxPoint y="6" as="offset" />
          </mxGeometry>
        </mxCell>
        <mxCell id="6iRS3MILoFcjqRqk2sZD-16" value="SA" style="ellipse;whiteSpace=wrap;html=1;aspect=fixed;" parent="1" vertex="1">
          <mxGeometry x="395" y="470" width="80" height="80" as="geometry" />
        </mxCell>
        <mxCell id="6iRS3MILoFcjqRqk2sZD-19" value="" style="curved=1;endArrow=classic;html=1;rounded=0;exitX=0;exitY=0;exitDx=0;exitDy=0;entryX=1;entryY=0;entryDx=0;entryDy=0;" parent="1" source="6iRS3MILoFcjqRqk2sZD-13" target="6iRS3MILoFcjqRqk2sZD-10" edge="1">
          <mxGeometry width="50" height="50" relative="1" as="geometry">
            <mxPoint x="505" y="360" as="sourcePoint" />
            <mxPoint x="555" y="310" as="targetPoint" />
            <Array as="points">
              <mxPoint x="505" y="350" />
            </Array>
          </mxGeometry>
        </mxCell>
        <mxCell id="6iRS3MILoFcjqRqk2sZD-20" value="*" style="edgeLabel;html=1;align=center;verticalAlign=middle;resizable=0;points=[];" parent="6iRS3MILoFcjqRqk2sZD-19" vertex="1" connectable="0">
          <mxGeometry x="0.1537" y="8" relative="1" as="geometry">
            <mxPoint y="6" as="offset" />
          </mxGeometry>
        </mxCell>
        <mxCell id="6iRS3MILoFcjqRqk2sZD-21" value="&lt;div&gt;S3&lt;/div&gt;&lt;div&gt;____________&lt;/div&gt;&lt;div&gt;&lt;br&gt;&lt;/div&gt;&lt;div&gt;c5=1&lt;br&gt;&lt;/div&gt;" style="ellipse;whiteSpace=wrap;html=1;aspect=fixed;" parent="1" vertex="1">
          <mxGeometry x="475" y="560" width="80" height="80" as="geometry" />
        </mxCell>
        <mxCell id="6iRS3MILoFcjqRqk2sZD-22" value="&lt;div&gt;S5&lt;/div&gt;&lt;div&gt;____________&lt;/div&gt;&lt;div&gt;c4=1&lt;/div&gt;&lt;div&gt;c5=1&lt;br&gt;&lt;/div&gt;" style="ellipse;whiteSpace=wrap;html=1;aspect=fixed;" parent="1" vertex="1">
          <mxGeometry x="275" y="560" width="80" height="80" as="geometry" />
        </mxCell>
        <mxCell id="6iRS3MILoFcjqRqk2sZD-23" value="&lt;div&gt;S4&lt;/div&gt;&lt;div&gt;____________&lt;/div&gt;&lt;div&gt;c3=1&lt;/div&gt;&lt;div&gt;c5=1&lt;br&gt;&lt;/div&gt;" style="ellipse;whiteSpace=wrap;html=1;aspect=fixed;" parent="1" vertex="1">
          <mxGeometry x="155" y="560" width="80" height="80" as="geometry" />
        </mxCell>
        <mxCell id="6iRS3MILoFcjqRqk2sZD-24" value="" style="curved=1;endArrow=classic;html=1;rounded=0;exitX=0;exitY=0;exitDx=0;exitDy=0;entryX=0.5;entryY=0;entryDx=0;entryDy=0;" parent="1" source="6iRS3MILoFcjqRqk2sZD-16" target="6iRS3MILoFcjqRqk2sZD-23" edge="1">
          <mxGeometry width="50" height="50" relative="1" as="geometry">
            <mxPoint x="275" y="640" as="sourcePoint" />
            <mxPoint x="325" y="590" as="targetPoint" />
            <Array as="points">
              <mxPoint x="265" y="480" />
            </Array>
          </mxGeometry>
        </mxCell>
        <mxCell id="6iRS3MILoFcjqRqk2sZD-26" value="" style="curved=1;endArrow=classic;html=1;rounded=0;exitX=0;exitY=0.5;exitDx=0;exitDy=0;entryX=0.5;entryY=0;entryDx=0;entryDy=0;" parent="1" source="6iRS3MILoFcjqRqk2sZD-16" target="6iRS3MILoFcjqRqk2sZD-22" edge="1">
          <mxGeometry width="50" height="50" relative="1" as="geometry">
            <mxPoint x="275" y="690" as="sourcePoint" />
            <mxPoint x="325" y="640" as="targetPoint" />
            <Array as="points">
              <mxPoint x="355" y="520" />
            </Array>
          </mxGeometry>
        </mxCell>
        <mxCell id="6iRS3MILoFcjqRqk2sZD-27" value="&lt;div&gt;a0==001 | &lt;br&gt;&lt;/div&gt;&lt;div&gt;a0==010 |&lt;/div&gt;&lt;div&gt;a0==011&lt;br&gt;&lt;/div&gt;" style="edgeLabel;html=1;align=center;verticalAlign=middle;resizable=0;points=[];" parent="6iRS3MILoFcjqRqk2sZD-26" vertex="1" connectable="0">
          <mxGeometry x="0.0285" y="10" relative="1" as="geometry">
            <mxPoint x="-81" y="-25" as="offset" />
          </mxGeometry>
        </mxCell>
        <mxCell id="6iRS3MILoFcjqRqk2sZD-30" value="" style="curved=1;endArrow=classic;html=1;rounded=0;exitX=1;exitY=0.5;exitDx=0;exitDy=0;entryX=0.5;entryY=0;entryDx=0;entryDy=0;" parent="1" source="6iRS3MILoFcjqRqk2sZD-16" target="6iRS3MILoFcjqRqk2sZD-21" edge="1">
          <mxGeometry width="50" height="50" relative="1" as="geometry">
            <mxPoint x="325" y="630" as="sourcePoint" />
            <mxPoint x="375" y="580" as="targetPoint" />
            <Array as="points">
              <mxPoint x="525" y="510" />
            </Array>
          </mxGeometry>
        </mxCell>
        <mxCell id="6iRS3MILoFcjqRqk2sZD-31" value="&lt;div&gt;a0==100 |&lt;/div&gt;&lt;div&gt;a0==101 |&lt;/div&gt;&lt;div&gt;a0==011&lt;br&gt;&lt;/div&gt;" style="edgeLabel;html=1;align=center;verticalAlign=middle;resizable=0;points=[];" parent="6iRS3MILoFcjqRqk2sZD-30" vertex="1" connectable="0">
          <mxGeometry x="0.3645" y="8" relative="1" as="geometry">
            <mxPoint x="-174" y="-4" as="offset" />
          </mxGeometry>
        </mxCell>
        <mxCell id="6iRS3MILoFcjqRqk2sZD-33" value="&lt;div&gt;a0==000 | &lt;br&gt;&lt;/div&gt;&lt;div&gt;a0==111&lt;br&gt;&lt;/div&gt;" style="edgeLabel;html=1;align=center;verticalAlign=middle;resizable=0;points=[];" parent="6iRS3MILoFcjqRqk2sZD-30" vertex="1" connectable="0">
          <mxGeometry x="0.1563" y="2" relative="1" as="geometry">
            <mxPoint x="-10" y="1" as="offset" />
          </mxGeometry>
        </mxCell>
        <mxCell id="6iRS3MILoFcjqRqk2sZD-34" value="&lt;div&gt;S6&lt;/div&gt;&lt;div&gt;____________&lt;/div&gt;&lt;div&gt;c6=1&lt;/div&gt;&lt;div&gt;c7=1&lt;br&gt;&lt;/div&gt;" style="ellipse;whiteSpace=wrap;html=1;aspect=fixed;" parent="1" vertex="1">
          <mxGeometry x="175" y="690" width="80" height="80" as="geometry" />
        </mxCell>
        <mxCell id="6iRS3MILoFcjqRqk2sZD-38" value="&lt;div&gt;S8&lt;/div&gt;&lt;div&gt;____________&lt;/div&gt;&lt;div&gt;&lt;br&gt;&lt;/div&gt;&lt;div&gt;c8=1&lt;br&gt;&lt;/div&gt;" style="ellipse;whiteSpace=wrap;html=1;aspect=fixed;" parent="1" vertex="1">
          <mxGeometry x="445" y="690" width="80" height="80" as="geometry" />
        </mxCell>
        <mxCell id="6iRS3MILoFcjqRqk2sZD-41" value="&lt;div&gt;S7&lt;/div&gt;&lt;div&gt;____________&lt;/div&gt;&lt;div&gt;&lt;br&gt;&lt;/div&gt;&lt;div&gt;c6=1&lt;br&gt;&lt;/div&gt;" style="ellipse;whiteSpace=wrap;html=1;aspect=fixed;" parent="1" vertex="1">
          <mxGeometry x="305" y="690" width="80" height="80" as="geometry" />
        </mxCell>
        <mxCell id="6iRS3MILoFcjqRqk2sZD-56" value="" style="curved=1;endArrow=classic;html=1;rounded=0;exitX=0.5;exitY=1;exitDx=0;exitDy=0;entryX=0;entryY=0;entryDx=0;entryDy=0;" parent="1" source="6iRS3MILoFcjqRqk2sZD-23" target="6iRS3MILoFcjqRqk2sZD-34" edge="1">
          <mxGeometry width="50" height="50" relative="1" as="geometry">
            <mxPoint x="335" y="710" as="sourcePoint" />
            <mxPoint x="385" y="660" as="targetPoint" />
            <Array as="points">
              <mxPoint x="165" y="660" />
            </Array>
          </mxGeometry>
        </mxCell>
        <mxCell id="6iRS3MILoFcjqRqk2sZD-93" value="*" style="edgeLabel;html=1;align=center;verticalAlign=middle;resizable=0;points=[];" parent="6iRS3MILoFcjqRqk2sZD-56" vertex="1" connectable="0">
          <mxGeometry x="-0.4269" y="5" relative="1" as="geometry">
            <mxPoint x="5" y="10" as="offset" />
          </mxGeometry>
        </mxCell>
        <mxCell id="6iRS3MILoFcjqRqk2sZD-60" value="" style="curved=1;endArrow=classic;html=1;rounded=0;exitX=0.5;exitY=1;exitDx=0;exitDy=0;entryX=0.5;entryY=0;entryDx=0;entryDy=0;" parent="1" source="6iRS3MILoFcjqRqk2sZD-21" target="6iRS3MILoFcjqRqk2sZD-38" edge="1">
          <mxGeometry width="50" height="50" relative="1" as="geometry">
            <mxPoint x="335" y="710" as="sourcePoint" />
            <mxPoint x="385" y="660" as="targetPoint" />
            <Array as="points">
              <mxPoint x="525" y="670" />
            </Array>
          </mxGeometry>
        </mxCell>
        <mxCell id="6iRS3MILoFcjqRqk2sZD-95" value="!cnt1" style="edgeLabel;html=1;align=center;verticalAlign=middle;resizable=0;points=[];" parent="6iRS3MILoFcjqRqk2sZD-60" vertex="1" connectable="0">
          <mxGeometry x="0.1213" y="-4" relative="1" as="geometry">
            <mxPoint x="7" y="9" as="offset" />
          </mxGeometry>
        </mxCell>
        <mxCell id="6iRS3MILoFcjqRqk2sZD-64" value="SAN" style="ellipse;whiteSpace=wrap;html=1;aspect=fixed;" parent="1" vertex="1">
          <mxGeometry x="590" y="620" width="80" height="80" as="geometry" />
        </mxCell>
        <mxCell id="6iRS3MILoFcjqRqk2sZD-66" value="" style="curved=1;endArrow=classic;html=1;rounded=0;exitX=1;exitY=1;exitDx=0;exitDy=0;entryX=0;entryY=1;entryDx=0;entryDy=0;" parent="1" source="6iRS3MILoFcjqRqk2sZD-34" target="6iRS3MILoFcjqRqk2sZD-38" edge="1">
          <mxGeometry width="50" height="50" relative="1" as="geometry">
            <mxPoint x="315" y="750" as="sourcePoint" />
            <mxPoint x="365" y="700" as="targetPoint" />
            <Array as="points">
              <mxPoint x="355" y="810" />
            </Array>
          </mxGeometry>
        </mxCell>
        <mxCell id="6iRS3MILoFcjqRqk2sZD-97" value="!cnt1" style="edgeLabel;html=1;align=center;verticalAlign=middle;resizable=0;points=[];" parent="6iRS3MILoFcjqRqk2sZD-66" vertex="1" connectable="0">
          <mxGeometry x="0.5511" y="7" relative="1" as="geometry">
            <mxPoint x="-11" y="-6" as="offset" />
          </mxGeometry>
        </mxCell>
        <mxCell id="6iRS3MILoFcjqRqk2sZD-68" value="" style="curved=1;endArrow=classic;html=1;rounded=0;exitX=0.5;exitY=1;exitDx=0;exitDy=0;entryX=0;entryY=1;entryDx=0;entryDy=0;" parent="1" source="6iRS3MILoFcjqRqk2sZD-34" target="6iRS3MILoFcjqRqk2sZD-64" edge="1">
          <mxGeometry width="50" height="50" relative="1" as="geometry">
            <mxPoint x="315" y="770" as="sourcePoint" />
            <mxPoint x="365" y="720" as="targetPoint" />
            <Array as="points">
              <mxPoint x="260" y="820" />
              <mxPoint x="445" y="820" />
              <mxPoint x="605" y="770" />
            </Array>
          </mxGeometry>
        </mxCell>
        <mxCell id="6iRS3MILoFcjqRqk2sZD-100" value="cnt1" style="edgeLabel;html=1;align=center;verticalAlign=middle;resizable=0;points=[];" parent="6iRS3MILoFcjqRqk2sZD-68" vertex="1" connectable="0">
          <mxGeometry x="-0.2248" y="4" relative="1" as="geometry">
            <mxPoint x="74" y="-17" as="offset" />
          </mxGeometry>
        </mxCell>
        <mxCell id="6iRS3MILoFcjqRqk2sZD-69" value="" style="curved=1;endArrow=classic;html=1;rounded=0;exitX=1;exitY=0.5;exitDx=0;exitDy=0;entryX=0;entryY=0.5;entryDx=0;entryDy=0;" parent="1" source="6iRS3MILoFcjqRqk2sZD-41" target="6iRS3MILoFcjqRqk2sZD-38" edge="1">
          <mxGeometry width="50" height="50" relative="1" as="geometry">
            <mxPoint x="455" y="770" as="sourcePoint" />
            <mxPoint x="505" y="720" as="targetPoint" />
            <Array as="points">
              <mxPoint x="405" y="750" />
            </Array>
          </mxGeometry>
        </mxCell>
        <mxCell id="6iRS3MILoFcjqRqk2sZD-96" value="!cnt1" style="edgeLabel;html=1;align=center;verticalAlign=middle;resizable=0;points=[];" parent="6iRS3MILoFcjqRqk2sZD-69" vertex="1" connectable="0">
          <mxGeometry x="-0.477" y="12" relative="1" as="geometry">
            <mxPoint x="3" y="-4" as="offset" />
          </mxGeometry>
        </mxCell>
        <mxCell id="6iRS3MILoFcjqRqk2sZD-70" value="" style="curved=1;endArrow=classic;html=1;rounded=0;exitX=1;exitY=0;exitDx=0;exitDy=0;entryX=0;entryY=0.5;entryDx=0;entryDy=0;" parent="1" source="6iRS3MILoFcjqRqk2sZD-41" target="6iRS3MILoFcjqRqk2sZD-64" edge="1">
          <mxGeometry width="50" height="50" relative="1" as="geometry">
            <mxPoint x="455" y="770" as="sourcePoint" />
            <mxPoint x="505" y="720" as="targetPoint" />
            <Array as="points">
              <mxPoint x="435" y="660" />
            </Array>
          </mxGeometry>
        </mxCell>
        <mxCell id="6iRS3MILoFcjqRqk2sZD-99" value="cnt1" style="edgeLabel;html=1;align=center;verticalAlign=middle;resizable=0;points=[];" parent="6iRS3MILoFcjqRqk2sZD-70" vertex="1" connectable="0">
          <mxGeometry x="-0.5885" y="-7" relative="1" as="geometry">
            <mxPoint x="-7" y="-10" as="offset" />
          </mxGeometry>
        </mxCell>
        <mxCell id="6iRS3MILoFcjqRqk2sZD-71" value="" style="curved=1;endArrow=classic;html=1;rounded=0;exitX=1;exitY=0.5;exitDx=0;exitDy=0;entryX=0;entryY=0;entryDx=0;entryDy=0;" parent="1" source="6iRS3MILoFcjqRqk2sZD-21" target="6iRS3MILoFcjqRqk2sZD-64" edge="1">
          <mxGeometry width="50" height="50" relative="1" as="geometry">
            <mxPoint x="535" y="770" as="sourcePoint" />
            <mxPoint x="585" y="720" as="targetPoint" />
            <Array as="points">
              <mxPoint x="590" y="590" />
            </Array>
          </mxGeometry>
        </mxCell>
        <mxCell id="6iRS3MILoFcjqRqk2sZD-98" value="cnt1" style="edgeLabel;html=1;align=center;verticalAlign=middle;resizable=0;points=[];" parent="6iRS3MILoFcjqRqk2sZD-71" vertex="1" connectable="0">
          <mxGeometry x="0.2174" y="-2" relative="1" as="geometry">
            <mxPoint x="2" y="-10" as="offset" />
          </mxGeometry>
        </mxCell>
        <mxCell id="6iRS3MILoFcjqRqk2sZD-78" style="edgeStyle=orthogonalEdgeStyle;rounded=0;orthogonalLoop=1;jettySize=auto;html=1;exitX=1;exitY=0.5;exitDx=0;exitDy=0;" parent="1" source="6iRS3MILoFcjqRqk2sZD-72" target="6iRS3MILoFcjqRqk2sZD-76" edge="1">
          <mxGeometry relative="1" as="geometry" />
        </mxCell>
        <mxCell id="6iRS3MILoFcjqRqk2sZD-103" value="*" style="edgeLabel;html=1;align=center;verticalAlign=middle;resizable=0;points=[];" parent="6iRS3MILoFcjqRqk2sZD-78" vertex="1" connectable="0">
          <mxGeometry x="0.6884" y="-3" relative="1" as="geometry">
            <mxPoint x="-13" y="5" as="offset" />
          </mxGeometry>
        </mxCell>
        <mxCell id="6iRS3MILoFcjqRqk2sZD-72" value="&lt;div&gt;S9&lt;/div&gt;&lt;div&gt;____________&lt;/div&gt;&lt;div&gt;c6=1&lt;/div&gt;&lt;div&gt;c9=1&lt;br&gt;&lt;/div&gt;" style="ellipse;whiteSpace=wrap;html=1;aspect=fixed;" parent="1" vertex="1">
          <mxGeometry x="595" y="740" width="80" height="80" as="geometry" />
        </mxCell>
        <mxCell id="6iRS3MILoFcjqRqk2sZD-73" value="" style="curved=1;endArrow=classic;html=1;rounded=0;exitX=1;exitY=1;exitDx=0;exitDy=0;entryX=0.5;entryY=0;entryDx=0;entryDy=0;" parent="1" source="6iRS3MILoFcjqRqk2sZD-64" target="6iRS3MILoFcjqRqk2sZD-72" edge="1">
          <mxGeometry width="50" height="50" relative="1" as="geometry">
            <mxPoint x="585" y="780" as="sourcePoint" />
            <mxPoint x="635" y="730" as="targetPoint" />
            <Array as="points">
              <mxPoint x="670" y="720" />
            </Array>
          </mxGeometry>
        </mxCell>
        <mxCell id="6iRS3MILoFcjqRqk2sZD-101" value="a[n]" style="edgeLabel;html=1;align=center;verticalAlign=middle;resizable=0;points=[];" parent="6iRS3MILoFcjqRqk2sZD-73" vertex="1" connectable="0">
          <mxGeometry x="0.0835" y="-2" relative="1" as="geometry">
            <mxPoint x="9" y="-10" as="offset" />
          </mxGeometry>
        </mxCell>
        <mxCell id="6iRS3MILoFcjqRqk2sZD-76" value="&lt;div&gt;S10&lt;/div&gt;&lt;div&gt;____________&lt;/div&gt;&lt;div&gt;c6=1&lt;/div&gt;&lt;div&gt;c7=1&lt;/div&gt;&lt;div&gt;c10=1&lt;br&gt;&lt;/div&gt;" style="ellipse;whiteSpace=wrap;html=1;aspect=fixed;" parent="1" vertex="1">
          <mxGeometry x="710" y="740" width="80" height="80" as="geometry" />
        </mxCell>
        <mxCell id="6iRS3MILoFcjqRqk2sZD-77" value="" style="curved=1;endArrow=classic;html=1;rounded=0;exitX=1;exitY=0.5;exitDx=0;exitDy=0;entryX=0.5;entryY=0;entryDx=0;entryDy=0;" parent="1" source="6iRS3MILoFcjqRqk2sZD-64" target="6iRS3MILoFcjqRqk2sZD-76" edge="1">
          <mxGeometry width="50" height="50" relative="1" as="geometry">
            <mxPoint x="575" y="740" as="sourcePoint" />
            <mxPoint x="625" y="690" as="targetPoint" />
            <Array as="points">
              <mxPoint x="735" y="639" />
            </Array>
          </mxGeometry>
        </mxCell>
        <mxCell id="6iRS3MILoFcjqRqk2sZD-102" value="!a[n]" style="edgeLabel;html=1;align=center;verticalAlign=middle;resizable=0;points=[];" parent="6iRS3MILoFcjqRqk2sZD-77" vertex="1" connectable="0">
          <mxGeometry x="0.2282" y="-6" relative="1" as="geometry">
            <mxPoint x="6" y="-8" as="offset" />
          </mxGeometry>
        </mxCell>
        <mxCell id="6iRS3MILoFcjqRqk2sZD-80" value="" style="curved=1;endArrow=classic;html=1;rounded=0;exitX=0.5;exitY=1;exitDx=0;exitDy=0;entryX=0.987;entryY=0.339;entryDx=0;entryDy=0;entryPerimeter=0;" parent="1" source="6iRS3MILoFcjqRqk2sZD-76" target="6iRS3MILoFcjqRqk2sZD-83" edge="1">
          <mxGeometry width="50" height="50" relative="1" as="geometry">
            <mxPoint x="555" y="890" as="sourcePoint" />
            <mxPoint x="733.2842712474619" y="801.7157287525383" as="targetPoint" />
            <Array as="points">
              <mxPoint x="750" y="840" />
              <mxPoint x="690" y="870" />
            </Array>
          </mxGeometry>
        </mxCell>
        <mxCell id="6iRS3MILoFcjqRqk2sZD-105" value="*" style="edgeLabel;html=1;align=center;verticalAlign=middle;resizable=0;points=[];" parent="6iRS3MILoFcjqRqk2sZD-80" vertex="1" connectable="0">
          <mxGeometry x="-0.5062" y="-2" relative="1" as="geometry">
            <mxPoint x="-70" y="10" as="offset" />
          </mxGeometry>
        </mxCell>
        <mxCell id="6iRS3MILoFcjqRqk2sZD-81" value="" style="curved=1;endArrow=classic;html=1;rounded=0;exitX=0;exitY=0;exitDx=0;exitDy=0;entryX=0.5;entryY=1;entryDx=0;entryDy=0;" parent="1" source="6iRS3MILoFcjqRqk2sZD-38" target="6iRS3MILoFcjqRqk2sZD-16" edge="1">
          <mxGeometry width="50" height="50" relative="1" as="geometry">
            <mxPoint x="385" y="660" as="sourcePoint" />
            <mxPoint x="435" y="610" as="targetPoint" />
            <Array as="points">
              <mxPoint x="435" y="670" />
            </Array>
          </mxGeometry>
        </mxCell>
        <mxCell id="6iRS3MILoFcjqRqk2sZD-104" value="*" style="edgeLabel;html=1;align=center;verticalAlign=middle;resizable=0;points=[];" parent="6iRS3MILoFcjqRqk2sZD-81" vertex="1" connectable="0">
          <mxGeometry x="0.2552" relative="1" as="geometry">
            <mxPoint x="-3" as="offset" />
          </mxGeometry>
        </mxCell>
        <mxCell id="6iRS3MILoFcjqRqk2sZD-82" value="" style="curved=1;endArrow=classic;html=1;rounded=0;exitX=0.5;exitY=1;exitDx=0;exitDy=0;entryX=0;entryY=0;entryDx=0;entryDy=0;" parent="1" source="6iRS3MILoFcjqRqk2sZD-22" target="6iRS3MILoFcjqRqk2sZD-41" edge="1">
          <mxGeometry width="50" height="50" relative="1" as="geometry">
            <mxPoint x="395" y="620" as="sourcePoint" />
            <mxPoint x="445" y="570" as="targetPoint" />
            <Array as="points">
              <mxPoint x="290" y="670" />
            </Array>
          </mxGeometry>
        </mxCell>
        <mxCell id="6iRS3MILoFcjqRqk2sZD-94" value="*" style="edgeLabel;html=1;align=center;verticalAlign=middle;resizable=0;points=[];" parent="6iRS3MILoFcjqRqk2sZD-82" vertex="1" connectable="0">
          <mxGeometry x="-0.3608" y="3" relative="1" as="geometry">
            <mxPoint x="6" y="8" as="offset" />
          </mxGeometry>
        </mxCell>
        <mxCell id="6iRS3MILoFcjqRqk2sZD-83" value="SC" style="ellipse;whiteSpace=wrap;html=1;aspect=fixed;" parent="1" vertex="1">
          <mxGeometry x="395" y="840" width="80" height="80" as="geometry" />
        </mxCell>
        <mxCell id="6iRS3MILoFcjqRqk2sZD-85" value="&lt;div&gt;S11&lt;/div&gt;&lt;div&gt;____________&lt;/div&gt;&lt;div&gt;&lt;br&gt;&lt;/div&gt;&lt;div&gt;c11=1&lt;br&gt;&lt;/div&gt;" style="ellipse;whiteSpace=wrap;html=1;aspect=fixed;" parent="1" vertex="1">
          <mxGeometry x="515" y="930" width="80" height="80" as="geometry" />
        </mxCell>
        <mxCell id="6iRS3MILoFcjqRqk2sZD-86" value="&lt;div&gt;S12&lt;/div&gt;&lt;div&gt;____________&lt;/div&gt;&lt;div&gt;c12=1&lt;/div&gt;&lt;div&gt;fin=1&lt;br&gt;&lt;/div&gt;" style="ellipse;whiteSpace=wrap;html=1;aspect=fixed;" parent="1" vertex="1">
          <mxGeometry x="395" y="990" width="80" height="80" as="geometry" />
        </mxCell>
        <mxCell id="6iRS3MILoFcjqRqk2sZD-87" value="" style="curved=1;endArrow=classic;html=1;rounded=0;exitX=0;exitY=1;exitDx=0;exitDy=0;entryX=0;entryY=0;entryDx=0;entryDy=0;" parent="1" source="6iRS3MILoFcjqRqk2sZD-83" target="6iRS3MILoFcjqRqk2sZD-86" edge="1">
          <mxGeometry width="50" height="50" relative="1" as="geometry">
            <mxPoint x="435" y="930" as="sourcePoint" />
            <mxPoint x="485" y="880" as="targetPoint" />
            <Array as="points">
              <mxPoint x="370" y="950" />
            </Array>
          </mxGeometry>
        </mxCell>
        <mxCell id="6iRS3MILoFcjqRqk2sZD-109" value="cnt2" style="edgeLabel;html=1;align=center;verticalAlign=middle;resizable=0;points=[];" parent="6iRS3MILoFcjqRqk2sZD-87" vertex="1" connectable="0">
          <mxGeometry x="-0.0864" y="5" relative="1" as="geometry">
            <mxPoint x="-4" y="-9" as="offset" />
          </mxGeometry>
        </mxCell>
        <mxCell id="6iRS3MILoFcjqRqk2sZD-88" value="" style="curved=1;endArrow=classic;html=1;rounded=0;entryX=0.5;entryY=0;entryDx=0;entryDy=0;exitX=1;exitY=0.5;exitDx=0;exitDy=0;" parent="1" source="6iRS3MILoFcjqRqk2sZD-83" target="6iRS3MILoFcjqRqk2sZD-85" edge="1">
          <mxGeometry width="50" height="50" relative="1" as="geometry">
            <mxPoint x="495" y="910" as="sourcePoint" />
            <mxPoint x="485" y="880" as="targetPoint" />
            <Array as="points">
              <mxPoint x="535" y="880" />
            </Array>
          </mxGeometry>
        </mxCell>
        <mxCell id="6iRS3MILoFcjqRqk2sZD-107" value="!cnt2" style="edgeLabel;html=1;align=center;verticalAlign=middle;resizable=0;points=[];" parent="6iRS3MILoFcjqRqk2sZD-88" vertex="1" connectable="0">
          <mxGeometry x="0.2281" y="-12" relative="1" as="geometry">
            <mxPoint x="-17" y="3" as="offset" />
          </mxGeometry>
        </mxCell>
        <mxCell id="6iRS3MILoFcjqRqk2sZD-92" value="" style="curved=1;endArrow=classic;html=1;rounded=0;exitX=0;exitY=1;exitDx=0;exitDy=0;entryX=0;entryY=0.5;entryDx=0;entryDy=0;" parent="1" source="6iRS3MILoFcjqRqk2sZD-86" target="6iRS3MILoFcjqRqk2sZD-1" edge="1">
          <mxGeometry width="50" height="50" relative="1" as="geometry">
            <mxPoint x="406.7157287525408" y="1058.2842712474592" as="sourcePoint" />
            <mxPoint x="585" y="520" as="targetPoint" />
            <Array as="points">
              <mxPoint x="320" y="1080" />
              <mxPoint x="170" y="920" />
              <mxPoint x="110" y="500" />
              <mxPoint x="270" y="160" />
            </Array>
          </mxGeometry>
        </mxCell>
        <mxCell id="6iRS3MILoFcjqRqk2sZD-111" value="*" style="edgeLabel;html=1;align=center;verticalAlign=middle;resizable=0;points=[];" parent="6iRS3MILoFcjqRqk2sZD-92" vertex="1" connectable="0">
          <mxGeometry x="0.0148" y="-7" relative="1" as="geometry">
            <mxPoint x="-4" as="offset" />
          </mxGeometry>
        </mxCell>
        <mxCell id="6iRS3MILoFcjqRqk2sZD-106" value="" style="curved=1;endArrow=classic;html=1;rounded=0;exitX=0;exitY=0.5;exitDx=0;exitDy=0;entryX=0.5;entryY=1;entryDx=0;entryDy=0;" parent="1" source="6iRS3MILoFcjqRqk2sZD-85" target="6iRS3MILoFcjqRqk2sZD-83" edge="1">
          <mxGeometry width="50" height="50" relative="1" as="geometry">
            <mxPoint x="490" y="910" as="sourcePoint" />
            <mxPoint x="540" y="860" as="targetPoint" />
            <Array as="points">
              <mxPoint x="450" y="980" />
            </Array>
          </mxGeometry>
        </mxCell>
        <mxCell id="6iRS3MILoFcjqRqk2sZD-108" value="*" style="edgeLabel;html=1;align=center;verticalAlign=middle;resizable=0;points=[];" parent="6iRS3MILoFcjqRqk2sZD-106" vertex="1" connectable="0">
          <mxGeometry x="-0.2194" y="-14" relative="1" as="geometry">
            <mxPoint x="-7" y="6" as="offset" />
          </mxGeometry>
        </mxCell>
        <mxCell id="t5qYeyUPgBRsd6mwy0vq-2" value="START" style="ellipse;whiteSpace=wrap;html=1;aspect=fixed;" parent="1" vertex="1">
          <mxGeometry x="400" y="135" width="70" height="70" as="geometry" />
        </mxCell>
      </root>
    </mxGraphModel>
  </diagram>
</mxfile>
